<svg width="30" height="30" viewBox="0 0 30 30" fill="none" xmlns="http://www.w3.org/2000/svg">
<rect width="30" height="30" rx="15" fill="white"/>
<path fill-rule="evenodd" clip-rule="evenodd" d="M11 10C11 8.93913 11.4214 7.92172 12.1716 7.17157C12.9217 6.42143 13.9391 6 15 6C16.0609 6 17.0783 6.42143 17.8284 7.17157C18.5786 7.92172 19 8.93913 19 10C19 11.0609 18.5786 12.0783 17.8284 12.8284C17.0783 13.5786 16.0609 14 15 14C13.9391 14 12.9217 13.5786 12.1716 12.8284C11.4214 12.0783 11 11.0609 11 10ZM11 16C9.67392 16 8.40215 16.5268 7.46447 17.4645C6.52678 18.4021 6 19.6739 6 21C6 21.7956 6.31607 22.5587 6.87868 23.1213C7.44129 23.6839 8.20435 24 9 24H21C21.7956 24 22.5587 23.6839 23.1213 23.1213C23.6839 22.5587 24 21.7956 24 21C24 19.6739 23.4732 18.4021 22.5355 17.4645C21.5979 16.5268 20.3261 16 19 16H11Z" fill="black"/>
</svg>
